{"title":"Zookeeper 2011 XViD CAM DTRG","uid":6540094,"size":1032595693,"categoryP":"video","categoryS":"movies","magnet":"?xt=urn:btih:81b3ef7a1903ffcecb689a5c92e2dfb0be3e6f30&amp;dn=Zookeeper+2011+XViD+CAM+DTRG&amp;tr=udp%3A%2F%2Ftracker.openbittorrent.com%3A80&amp;tr=udp%3A%2F%2Fopen.demonii.com%3A1337&amp;tr=udp%3A%2F%2Ftracker.coppersurfer.tk%3A6969&amp;tr=udp%3A%2F%2Fexodus.desync.com%3A6969","seeders":1,"leechers":0,"uploader":"SAFCukO09","files":4,"time":1310662943,"description":"Format : AVI\nFormat/Info : Audio Video Interleave\nFile size : 975 MiB\nDuration : 1h 36mn\nOverall bit rate : 1 413 Kbps\nWriting library : VirtualDub build 32842/release\n\nVideo\nID : 0\nFormat : MPEG-4 Visual\nFormat profile : Advanced Simple@L5\nFormat settings, BVOP : 2\nFormat settings, QPel : No\nFormat settings, GMC : No warppoints\nFormat settings, Matrix : Default (H.263)\nMuxing mode : Packed bitstream\nCodec ID : XVID\nCodec ID/Hint : XviD\nDuration : 1h 36mn\nBit rate : 1 271 Kbps\nWidth : 672 pixels\nHeight : 284 pixels\nDisplay aspect ratio : 2.35:1\nFrame rate : 29.970 fps\nColor space : YUV\nChroma subsampling : 4:2:0\nBit depth : 8 bits\nScan type : Progressive\nCompression mode : Lossy\nBits/(Pixel*Frame) : 0.222\nStream size : 877 MiB (90%)\nWriting library : XviD 64\n\nAudio\nID : 1\nFormat : MPEG Audio\nFormat version : Version 1\nFormat profile : Layer 3\nMode : Joint stereo\nMode extension : MS Stereo\nCodec ID : 55\nCodec ID/Hint : MP3\nDuration : 1h 36mn\nBit rate mode : Constant\nBit rate : 128 Kbps\nChannel(s) : 2 channels\nSampling rate : 48.0 KHz\nCompression mode : Lossy\nStream size : 88.4 MiB (9%)\nAlignment : Aligned on interleaves\nInterleave, duration : 24 ms (0.72 video frame)\nInterleave, preload duration : 504 ms\n\n\n\n\n\n &lt;a href=&quot;\nhttp://www.imdb.com/title/tt1222817/&quot; rel=&quot;nofollow&quot; target=&quot;_NEW&quot;&gt;\nhttp://www.imdb.com/title/tt1222817/&lt;/a&gt;\n\n\n\n\n\n\n\n\n\nUsers: (1,299 votes) 36 reviews | Critics: 70 reviews Metascore: 30/100 (based on 27 reviews from Metacritic.com)\n\n\nA group of zoo animals decide to break their code of silence in order to help their lovable zookeeper (Kevin James) find love -- without opting to leave his current job for something more illustrious. woman.\n\nDirector: Frank Coraci\nWriters: Nick Bakay (screenplay), Rock Reuben (screenplay), and 5 more credits Ã‚Â»\nStars: Kevin James, Rosario Dawson and Leslie Bibb","torrent":{"xt":"urn:btih:81b3ef7a1903ffcecb689a5c92e2dfb0be3e6f30","amp;dn":"Zookeeper+2011+XViD+CAM+DTRG","amp;tr":["udp%3A%2F%2Ftracker.openbittorrent.com%3A80","udp%3A%2F%2Fopen.demonii.com%3A1337","udp%3A%2F%2Ftracker.coppersurfer.tk%3A6969","udp%3A%2F%2Fexodus.desync.com%3A6969"],"infoHash":"81b3ef7a1903ffcecb689a5c92e2dfb0be3e6f30","infoHashBuffer":{"type":"Buffer","data":[129,179,239,122,25,3,255,206,203,104,154,92,146,226,223,176,190,62,111,48]},"announce":[],"urlList":[]}}